<svg width="88" height="44" viewBox="0 0 88 44" fill="none" xmlns="http://www.w3.org/2000/svg">
<path d="M19.92 0.248V17H16.56V6.104L12.072 17H9.528L5.016 6.104V17H1.656V0.248H5.472L10.8 12.704L16.128 0.248H19.92ZM26.5539 0.248V10.616C26.5539 11.752 26.8499 12.624 27.4419 13.232C28.0339 13.824 28.8659 14.12 29.9379 14.12C31.0259 14.12 31.8659 13.824 32.4579 13.232C33.0499 12.624 33.3459 11.752 33.3459 10.616V0.248H36.7299V10.592C36.7299 12.016 36.4179 13.224 35.7939 14.216C35.1859 15.192 34.3619 15.928 33.3219 16.424C32.2979 16.92 31.1539 17.168 29.8899 17.168C28.6419 17.168 27.5059 16.92 26.4819 16.424C25.4739 15.928 24.6739 15.192 24.0819 14.216C23.4899 13.224 23.1939 12.016 23.1939 10.592V0.248H26.5539ZM54.3043 17H50.9443L43.3363 5.504V17H39.9763V0.223999H43.3363L50.9443 11.744V0.223999H54.3043V17ZM60.9848 0.248V17H57.6248V0.248H60.9848ZM75.7044 0.248V2.96H71.2404V17H67.8804V2.96H63.4164V0.248H75.7044ZM81.516 2.96V7.16H87.156V9.824H81.516V14.264H87.876V17H78.156V0.223999H87.876V2.96H81.516ZM13.32 31.288C12.936 30.584 12.408 30.048 11.736 29.68C11.064 29.312 10.28 29.128 9.384 29.128C8.392 29.128 7.512 29.352 6.744 29.8C5.976 30.248 5.376 30.888 4.944 31.72C4.512 32.552 4.296 33.512 4.296 34.6C4.296 35.72 4.512 36.696 4.944 37.528C5.392 38.36 6.008 39 6.792 39.448C7.576 39.896 8.488 40.12 9.528 40.12C10.808 40.12 11.856 39.784 12.672 39.112C13.488 38.424 14.024 37.472 14.28 36.256H8.52V33.688H17.592V36.616C17.368 37.784 16.888 38.864 16.152 39.856C15.416 40.848 14.464 41.648 13.296 42.256C12.144 42.848 10.848 43.144 9.408 43.144C7.792 43.144 6.328 42.784 5.016 42.064C3.72 41.328 2.696 40.312 1.944 39.016C1.208 37.72 0.84 36.248 0.84 34.6C0.84 32.952 1.208 31.48 1.944 30.184C2.696 28.872 3.72 27.856 5.016 27.136C6.328 26.4 7.784 26.032 9.384 26.032C11.272 26.032 12.912 26.496 14.304 27.424C15.696 28.336 16.656 29.624 17.184 31.288H13.32ZM28.7179 43L25.0219 36.472H23.4379V43H20.0779V26.248H26.3659C27.6619 26.248 28.7659 26.48 29.6779 26.944C30.5899 27.392 31.2699 28.008 31.7179 28.792C32.1819 29.56 32.4139 30.424 32.4139 31.384C32.4139 32.488 32.0939 33.488 31.4539 34.384C30.8139 35.264 29.8619 35.872 28.5979 36.208L32.6059 43H28.7179ZM23.4379 33.952H26.2459C27.1579 33.952 27.8379 33.736 28.2859 33.304C28.7339 32.856 28.9579 32.24 28.9579 31.456C28.9579 30.688 28.7339 30.096 28.2859 29.68C27.8379 29.248 27.1579 29.032 26.2459 29.032H23.4379V33.952ZM43.2289 43.168C41.6609 43.168 40.2209 42.8 38.9089 42.064C37.5969 41.328 36.5569 40.312 35.7889 39.016C35.0209 37.704 34.6369 36.224 34.6369 34.576C34.6369 32.944 35.0209 31.48 35.7889 30.184C36.5569 28.872 37.5969 27.848 38.9089 27.112C40.2209 26.376 41.6609 26.008 43.2289 26.008C44.8129 26.008 46.2529 26.376 47.5489 27.112C48.8609 27.848 49.8929 28.872 50.6449 30.184C51.4129 31.48 51.7969 32.944 51.7969 34.576C51.7969 36.224 51.4129 37.704 50.6449 39.016C49.8929 40.312 48.8609 41.328 47.5489 42.064C46.2369 42.8 44.7969 43.168 43.2289 43.168ZM43.2289 40.168C44.2369 40.168 45.1249 39.944 45.8929 39.496C46.6609 39.032 47.2609 38.376 47.6929 37.528C48.1249 36.68 48.3409 35.696 48.3409 34.576C48.3409 33.456 48.1249 32.48 47.6929 31.648C47.2609 30.8 46.6609 30.152 45.8929 29.704C45.1249 29.256 44.2369 29.032 43.2289 29.032C42.2209 29.032 41.3249 29.256 40.5409 29.704C39.7729 30.152 39.1729 30.8 38.7409 31.648C38.3089 32.48 38.0929 33.456 38.0929 34.576C38.0929 35.696 38.3089 36.68 38.7409 37.528C39.1729 38.376 39.7729 39.032 40.5409 39.496C41.3249 39.944 42.2209 40.168 43.2289 40.168ZM57.6086 26.248V36.616C57.6086 37.752 57.9046 38.624 58.4966 39.232C59.0886 39.824 59.9206 40.12 60.9926 40.12C62.0806 40.12 62.9206 39.824 63.5126 39.232C64.1046 38.624 64.4006 37.752 64.4006 36.616V26.248H67.7846V36.592C67.7846 38.016 67.4726 39.224 66.8486 40.216C66.2406 41.192 65.4166 41.928 64.3766 42.424C63.3526 42.92 62.2086 43.168 60.9446 43.168C59.6966 43.168 58.5606 42.92 57.5366 42.424C56.5286 41.928 55.7286 41.192 55.1366 40.216C54.5446 39.224 54.2486 38.016 54.2486 36.592V26.248H57.6086ZM83.247 31.432C83.247 32.328 83.031 33.168 82.599 33.952C82.183 34.736 81.519 35.368 80.607 35.848C79.711 36.328 78.575 36.568 77.199 36.568H74.391V43H71.031V26.248H77.199C78.495 26.248 79.599 26.472 80.511 26.92C81.423 27.368 82.103 27.984 82.551 28.768C83.015 29.552 83.247 30.44 83.247 31.432ZM77.055 33.856C77.983 33.856 78.671 33.648 79.119 33.232C79.567 32.8 79.791 32.2 79.791 31.432C79.791 29.8 78.879 28.984 77.055 28.984H74.391V33.856H77.055Z" fill="white"/>
</svg>
