<svg width="83" height="56" viewBox="0 0 83 56" fill="none" xmlns="http://www.w3.org/2000/svg">
<g clip-path="url(#clip0)">
<path d="M63.0087 37.3194C62.8322 37.2576 62.6607 37.2093 62.5775 37.1784C61.8096 36.8901 61.0645 36.5597 60.3004 36.254C60.0293 36.1389 59.7582 36.0239 59.4871 35.9063C59.2753 35.8147 58.9954 35.7492 58.8264 35.5833C58.738 35.5085 58.6569 35.4256 58.5843 35.3359C57.2339 33.7408 55.9692 32.0542 54.3629 30.6906C51.025 27.8729 47.2873 25.5465 43.2671 23.7846C41.3538 22.9312 39.3689 22.2414 37.3347 21.723C35.2544 21.1908 33.1312 20.836 30.9887 20.6625C28.9561 20.5103 26.9085 20.6848 24.8973 20.9818C22.8862 21.2788 20.8903 21.6005 18.9586 22.2464C15.2113 23.4839 11.9758 25.9587 10.0946 29.4099C9.46585 30.5941 9.05724 31.8788 8.88794 33.2038C8.71142 34.4697 8.62442 35.8976 8.87407 37.1573C8.95225 37.5583 9.25233 37.8998 9.47425 38.245C9.75038 38.6645 10.0316 39.0791 10.3064 39.4985L13.7814 44.7749C13.823 44.8392 14.2265 45.3293 14.195 45.4035L12.7298 48.8782C12.7015 48.9524 12.7015 49.0341 12.7298 49.1083L14.0714 52.828L14.8279 53.1992C14.8935 53.2314 15.0032 53.1819 15.0801 53.1992C15.157 53.2166 15.7181 53.4987 15.7181 53.5705V55.3771C15.7178 55.4276 15.7339 55.4769 15.764 55.5179C15.7942 55.5588 15.8368 55.5893 15.8858 55.6048L16.6953 55.8696C16.7417 55.8852 16.7918 55.8867 16.839 55.8739C16.8863 55.8611 16.9285 55.8346 16.9601 55.7978L18.1554 54.4107C18.1808 54.3804 18.1985 54.3447 18.207 54.3064C18.2156 54.2681 18.2148 54.2283 18.2046 54.1904L16.6007 48.622L19.3747 42.0637L16.9084 38.693C16.903 38.6853 16.9001 38.6763 16.8999 38.667C16.8998 38.6577 16.9024 38.6486 16.9075 38.6408C16.9127 38.633 16.92 38.6268 16.9287 38.6231C16.9374 38.6194 16.947 38.6183 16.9563 38.62L19.8803 39.1719C19.8905 39.1741 19.9012 39.1728 19.9105 39.168C19.9198 39.1633 19.927 39.1555 19.931 39.1459C19.9349 39.1364 19.9353 39.1258 19.932 39.1161C19.9287 39.1063 19.922 39.098 19.9131 39.0927C18.8489 38.4294 14.1042 35.1812 16.9374 31.6063C16.9564 31.5821 16.9802 31.562 17.0075 31.5472C17.0347 31.5324 17.0647 31.5233 17.0957 31.5204C17.1267 31.5175 17.158 31.5209 17.1876 31.5303C17.2172 31.5398 17.2444 31.5551 17.2677 31.5753C20.3733 34.2729 23.7474 36.9173 28.0256 37.2922C28.8869 37.3851 29.7562 37.3813 30.6167 37.2811C32.1398 37.0695 33.4083 36.2615 34.5696 35.3124C35.662 34.4218 36.6337 33.3976 37.4608 32.2646C38.2526 31.1843 38.786 29.937 39.6484 28.9062C39.874 28.626 40.1582 28.3965 40.4818 28.2331C40.6495 28.1539 41.6002 28.1279 41.6431 28.0141C41.7112 27.8309 40.8866 27.0241 40.7491 26.8534C40.6382 26.716 40.5197 26.5514 40.5588 26.3794C40.5745 26.3235 40.6033 26.2721 40.6429 26.2291C40.6826 26.1861 40.7319 26.1528 40.787 26.1319C41.2548 25.9377 41.947 26.3237 42.3126 26.5824C42.4387 26.6739 42.5711 26.7952 42.5762 26.9536C42.5906 26.778 42.6668 26.6129 42.7917 26.4864C42.9166 26.36 43.0825 26.2802 43.2608 26.2606C43.4419 26.2519 43.6203 26.3066 43.7642 26.4149C43.908 26.5232 44.008 26.6782 44.0463 26.8521C44.4536 26.8261 44.929 26.8249 45.079 27.331C45.1137 27.4647 45.1163 27.6045 45.0866 27.7393C44.9769 28.3061 44.9088 28.8691 44.8344 29.4408C45.2139 29.4904 45.5693 29.6512 45.8541 29.9022C46.1389 30.1532 46.3398 30.4828 46.4307 30.8477C46.4363 30.8695 46.4364 30.8923 46.4311 30.9142C46.4258 30.936 46.4153 30.9563 46.4003 30.9733C46.3853 30.9903 46.3664 31.0035 46.3451 31.0118C46.3239 31.0201 46.3009 31.0232 46.2781 31.021C45.2139 30.9071 44.1195 31.2932 43.7387 32.3537C43.6422 32.6643 43.5912 32.9868 43.5874 33.3114C43.5864 33.3282 43.5805 33.3443 43.5704 33.3578C43.5604 33.3714 43.5466 33.3819 43.5307 33.388C43.5148 33.3941 43.4974 33.3956 43.4806 33.3924C43.4639 33.3891 43.4484 33.3812 43.4361 33.3696C43.2709 33.2174 43.1322 33.1036 43.0692 33.0293C42.8563 32.775 42.688 32.4877 42.5711 32.1792C42.5151 32.027 42.4684 31.8716 42.4312 31.7139C42.3896 31.5494 42.2811 31.2821 42.3051 31.1163C41.9118 33.6549 41.7288 36.2206 41.7578 38.7883C41.7642 39.1372 41.778 39.4874 41.807 39.8351C42.0592 42.8049 43.3201 48.0021 43.3201 48.0021L42.3316 52.7327C42.3276 52.7583 42.3326 52.7844 42.3456 52.8068C42.3587 52.8293 42.379 52.8468 42.4034 52.8565L43.2394 53.1634C43.2627 53.1719 43.2825 53.1876 43.2959 53.2081C43.3094 53.2286 43.3156 53.2529 43.3138 53.2772L43.2028 54.9279C43.2012 54.9436 43.203 54.9595 43.2081 54.9744C43.2131 54.9894 43.2213 55.0032 43.2321 55.0149C43.243 55.0265 43.2561 55.0358 43.2709 55.0422C43.2856 55.0485 43.3015 55.0517 43.3176 55.0517H46.8316C46.8493 55.0518 46.8667 55.048 46.8826 55.0405C46.8985 55.033 46.9124 55.022 46.9233 55.0084C46.9341 54.9947 46.9416 54.9788 46.9452 54.9618C46.9488 54.9449 46.9483 54.9273 46.9439 54.9106L45.9768 51.2342C45.9742 51.2216 45.9742 51.2085 45.9768 51.1959L46.5568 44.6487C46.5858 44.3307 46.6085 44.0126 46.6425 43.6946C46.6917 43.2145 46.6286 42.6292 46.814 42.18C47.4242 40.7063 49.6308 42.2666 50.4201 42.7629C51.5221 43.457 52.8372 44.2874 53.5723 45.38C53.6012 45.4236 53.6406 45.4595 53.687 45.4845C53.7334 45.5096 53.7854 45.523 53.8384 45.5235H57.761C57.8192 45.5235 57.8764 45.508 57.9264 45.4786C57.9763 45.4491 58.0172 45.4069 58.0447 45.3565L58.9613 43.6686C59.2135 43.1997 58.3763 42.9262 58.0888 42.9262C58.2385 42.6431 58.3254 42.3321 58.3439 42.0137C58.3624 41.6953 58.312 41.3766 58.196 41.0787C58.0376 40.6942 57.7724 40.3611 57.4306 40.1173C57.3045 40.0269 57.0044 39.9378 56.9502 39.8042C56.896 39.6705 57.0284 39.2585 57.0511 39.0951C57.1772 38.1052 57.2352 37.0769 56.6917 36.1884C56.6542 36.1317 56.6316 36.0666 56.6262 35.9991C56.5972 35.4052 57.5933 36.6389 57.6828 36.7416C57.9773 37.0748 58.3074 37.376 58.6675 37.6399C59.2682 38.0853 59.9911 38.3439 60.7429 38.3824C61.5877 38.4109 62.5082 38.1807 63.2849 37.8726C63.8132 37.6597 63.4009 37.458 63.0087 37.3194Z" fill="white"/>
<path d="M54.8609 54.4762L50.0254 55.4884C50.0015 55.494 49.9764 55.4926 49.9533 55.4844C49.9301 55.4762 49.9099 55.4615 49.8952 55.4422C49.8804 55.4228 49.8718 55.3997 49.8703 55.3756C49.8688 55.3515 49.8745 55.3274 49.8868 55.3065L51.2498 52.8552C51.2611 52.8338 51.2664 52.8099 51.2649 52.7859L51.0657 50.2442L50.9396 48.5786C50.8828 47.8449 50.9623 47.1234 51.019 46.3896C51.3973 46.4701 53.4147 46.772 53.4147 47.2558C53.4147 47.606 53.3025 51.4767 53.2886 51.9172C53.2879 51.9437 53.2958 51.9697 53.3113 51.9914L54.9429 54.2782C54.9563 54.2953 54.965 54.3156 54.9679 54.337C54.9709 54.3584 54.9681 54.3802 54.9598 54.4003C54.9515 54.4203 54.938 54.4378 54.9207 54.4512C54.9033 54.4645 54.8827 54.4731 54.8609 54.4762Z" fill="white"/>
<path d="M13.504 55.4214L9.56504 55.3076C9.546 55.3067 9.52743 55.3015 9.51072 55.2925C9.494 55.2835 9.47958 55.271 9.46853 55.2557C9.45749 55.2405 9.45011 55.223 9.44696 55.2045C9.4438 55.1861 9.44493 55.1672 9.45029 55.1492L10.2434 52.7028C10.2482 52.6887 10.2495 52.6737 10.2472 52.659C10.2449 52.6442 10.2391 52.6303 10.2302 52.6182C10.2214 52.6061 10.2097 52.5963 10.1962 52.5895C10.1827 52.5827 10.1678 52.5791 10.1526 52.5791H9.12499C9.11186 52.5791 9.09886 52.5765 9.0868 52.5714C9.07474 52.5663 9.06389 52.5588 9.0549 52.5494C9.04591 52.54 9.03899 52.5289 9.03457 52.5167C9.03014 52.5046 9.0283 52.4917 9.02916 52.4789L9.40743 46.6395L9.53352 45.5258L6.78731 40.1356C6.77837 40.119 6.7737 40.1005 6.7737 40.0818C6.7737 40.063 6.77837 40.0445 6.78731 40.0279L7.79602 38.2807C7.80623 38.2629 7.82107 38.2482 7.83901 38.2379C7.85696 38.2276 7.87737 38.2222 7.89815 38.2222C7.91893 38.2222 7.93934 38.2276 7.95729 38.2379C7.97524 38.2482 7.99007 38.2629 8.00028 38.2807L12.0981 45.4949C12.1257 45.5437 12.1429 45.5974 12.1487 45.6529C12.1546 45.7084 12.149 45.7645 12.1322 45.8178L11.2193 48.7319C11.1915 48.8194 11.1942 48.9134 11.2269 48.9992L13.6301 55.2569C13.637 55.2761 13.639 55.2967 13.6358 55.3168C13.6326 55.3369 13.6244 55.356 13.6119 55.3723C13.5995 55.3885 13.5831 55.4016 13.5643 55.4101C13.5455 55.4187 13.5248 55.4226 13.504 55.4214Z" fill="white"/>
<path d="M2.34519 13.4776C3.0866 10.7144 4.86696 8.37571 7.20841 6.71509C8.45234 5.85214 9.80146 5.14544 11.2243 4.61148C13.1585 3.86903 15.2982 3.78983 17.3396 4.04103C18.4883 4.18333 19.6193 4.42587 20.7553 4.63994C22.9947 5.0619 25.2541 5.41333 27.5023 5.79445C29.8021 6.18424 32.1209 6.51463 34.4561 6.58393C38.1429 6.69406 41.7692 6.05555 45.2404 4.83917C48.7708 3.60175 52.1525 1.77408 55.9326 1.34593C59.2109 0.974707 65.2632 2.33587 65.2632 2.33587C69.1719 -2.36632 71.9458 1.46967 71.9458 1.46967C71.9458 1.46967 76.9894 8.27548 78.3763 9.88412C79.7633 11.4928 82.6633 14.0913 82.6633 14.0913C83.4198 15.4525 82.6633 16.195 82.6633 16.195C82.6633 16.195 80.1416 20.1547 77.6198 19.1648C76.8292 18.8542 75.9252 18.7391 75.1346 19.1066C74.8831 19.2242 74.6537 19.3828 74.4562 19.5756C74.3302 19.6993 74.1675 20.0112 73.9859 20.0347C72.309 20.2463 70.5626 20.3094 69.2072 21.4231C68.3674 22.1111 67.8505 23.0787 67.5983 24.112C67.3993 25.0053 67.3318 25.9221 67.3978 26.8343C67.3978 26.9296 67.4306 27.9257 67.4067 27.948C66.7762 28.4429 63.2458 33.3344 62.3127 34.703C62.2905 34.7367 62.2614 34.7656 62.2273 34.7877C62.1932 34.8098 62.1547 34.8247 62.1144 34.8314C62.0741 34.8382 62.0328 34.8366 61.9931 34.8269C61.9535 34.8171 61.9163 34.7994 61.884 34.7748C61.309 34.3454 59.8666 33.7057 59.1895 33.4136C58.7066 33.207 58.3951 32.5004 58.0812 32.102C57.6878 31.607 57.2721 31.1257 56.8342 30.6579C56.1047 29.8916 55.3187 29.1789 54.4826 28.5258C54.0842 28.2152 53.9556 28.1484 54.0312 27.7054L54.4095 25.5152L55.5632 18.7577L56.0386 15.9747C56.0452 15.9327 56.0656 15.8939 56.0968 15.8644C56.128 15.8349 56.1683 15.8163 56.2113 15.8114C56.9464 15.726 60.2196 15.377 62.1147 15.7049C64.2582 16.0762 62.7452 17.5611 62.2408 19.046C61.9105 20.0186 62.8183 19.9122 63.4853 19.656C63.8295 19.5249 63.8901 19.3417 64.0968 19.0571L64.7273 18.1686C65.3666 17.2307 66.2013 16.3039 66.7447 15.3003C66.8811 15.0592 66.9705 14.7953 67.0082 14.522C67.1431 13.4343 66.4043 12.1709 65.8457 11.2601C65.0958 10.0649 64.1791 8.97864 63.1222 8.03294C59.5917 4.81565 54.4221 3.94946 53.1612 4.0732C52.7187 4.11651 52.0844 4.19695 51.7478 4.52734C51.3317 4.93445 51.9571 5.10645 52.324 5.19307C52.7758 5.28592 53.2181 5.41887 53.6454 5.59028C54.6264 6.01719 55.3816 6.81161 56.1092 7.585C56.3613 7.85847 54.204 10.1007 53.9884 10.3444C52.7464 11.7514 51.5927 13.2351 50.3444 14.6432C49.1352 16.0118 47.7369 17.0871 46.1558 18.0164C44.7738 18.8269 43.4537 19.1573 41.8738 19.4791C39.6345 19.9344 37.2086 19.6238 35.0499 19.0744C31.401 18.1551 27.602 17.9583 23.8747 18.4953C20.8083 18.9334 17.7683 20.1275 15.0978 21.6446C12.8963 22.8943 10.8952 24.5686 9.52718 26.6907C8.02294 29.0208 7.29668 31.8124 6.87933 34.5137C6.86167 34.6313 6.56789 34.2415 6.50106 34.1425C5.99671 33.4 5.59323 32.8246 5.34861 32.1379C4.48491 29.715 4.29199 27.0323 4.13313 24.4894C3.96795 21.8425 4.18357 19.0979 3.70947 16.4858C3.67921 16.3224 3.21899 14.4712 3.09668 14.5913C2.68942 14.9909 2.64276 15.6604 2.5482 16.1851C2.43219 16.8372 2.34772 17.4942 2.28215 18.1526C2.15606 19.4902 2.09932 20.834 2.02998 22.1766C1.95159 24.1025 2.0567 26.0314 2.34394 27.9381C2.7512 30.8608 3.56951 33.9878 2.81424 36.9168C2.77137 37.0801 1.81815 39.6911 1.45249 39.0922C1.07423 38.4734 0.822047 37.9785 0.191607 32.7813C-0.438833 27.5842 0.453875 20.5309 2.34519 13.4776ZM66.8393 9.44113C67.8051 11.2973 70.3294 12.354 72.3556 12.4691C73.054 12.5045 73.7542 12.4684 74.4449 12.3614C74.4794 12.3566 74.5112 12.3405 74.5351 12.3156C74.559 12.2908 74.5736 12.2587 74.5766 12.2247C74.5795 12.1906 74.5706 12.1566 74.5512 12.1281C74.5319 12.0997 74.5033 12.0786 74.4701 12.0682C73.6306 11.7929 72.8266 11.4224 72.0744 10.9644C71.2612 10.4818 70.5538 10.0054 70.2777 9.05258C69.7557 7.25585 71.2952 6.0011 72.0732 4.56817C72.5574 3.67599 72.0555 2.83579 71.3444 2.24554C71.0065 1.96836 70.6295 1.71468 70.1982 1.62683C69.7153 1.54872 69.2199 1.64123 68.7999 1.88792C67.0826 2.8296 66.5669 4.87134 66.3929 6.65075C66.2983 7.59985 66.398 8.58978 66.8393 9.44113Z" fill="white"/>
</g>
<defs>
<clipPath id="clip0">
<rect width="83" height="55.8818" transform="matrix(-1 0 0 1 83 0)" fill="white"/>
</clipPath>
</defs>
</svg>
