<svg width="90" height="62" viewBox="0 0 90 62" fill="none" xmlns="http://www.w3.org/2000/svg">
<g clip-path="url(#clip0)">
<path d="M68.3228 41.4052C68.1314 41.3365 67.9454 41.283 67.8552 41.2487C67.0225 40.9288 66.2145 40.5622 65.386 40.2231C65.092 40.0954 64.7981 39.9677 64.5041 39.8373C64.2744 39.7357 63.9709 39.663 63.7877 39.479C63.6918 39.3959 63.6039 39.304 63.5252 39.2044C62.0609 37.4347 60.6896 35.5635 58.9477 34.0506C55.3283 30.9244 51.2754 28.3433 46.9162 26.3884C44.8414 25.4416 42.6892 24.6763 40.4834 24.1012C38.2277 23.5107 35.9254 23.1171 33.6022 22.9246C31.3982 22.7557 29.1779 22.9493 26.9971 23.2788C24.8164 23.6083 22.6521 23.9653 20.5575 24.6819C16.4942 26.0548 12.9859 28.8006 10.946 32.6296C10.2642 33.9435 9.82113 35.3689 9.63755 36.8389C9.44614 38.2434 9.3518 39.8277 9.62251 41.2253C9.70728 41.6701 10.0327 42.0491 10.2733 42.4321C10.5727 42.8975 10.8776 43.3574 11.1757 43.8228L14.9437 49.6769C14.9888 49.7483 15.4264 50.2919 15.3922 50.3743L13.8035 54.2294C13.7727 54.3117 13.7727 54.4024 13.8035 54.4847L15.2582 58.6117L16.0785 59.0235C16.1496 59.0592 16.2686 59.0043 16.352 59.0235C16.4354 59.0428 17.0438 59.3558 17.0438 59.4354V61.4398C17.0434 61.4959 17.0608 61.5506 17.0935 61.596C17.1262 61.6415 17.1725 61.6752 17.2256 61.6925L18.1034 61.9863C18.1537 62.0036 18.208 62.0052 18.2592 61.991C18.3104 61.9768 18.3562 61.9474 18.3905 61.9066L19.6866 60.3676C19.7141 60.334 19.7333 60.2944 19.7426 60.2519C19.7519 60.2094 19.751 60.1653 19.7399 60.1232L18.0008 53.9452L21.0087 46.6688L18.3344 42.9291C18.3286 42.9206 18.3254 42.9106 18.3252 42.9003C18.3251 42.89 18.3279 42.8798 18.3335 42.8712C18.3391 42.8625 18.347 42.8557 18.3565 42.8516C18.3659 42.8475 18.3763 42.8462 18.3864 42.8481L21.557 43.4604C21.568 43.4629 21.5797 43.4614 21.5897 43.4561C21.5998 43.4509 21.6077 43.4422 21.6119 43.4316C21.6162 43.4211 21.6166 43.4093 21.613 43.3985C21.6095 43.3877 21.6022 43.3785 21.5925 43.3725C20.4386 42.6367 15.2937 39.0328 18.3659 35.0665C18.3865 35.0396 18.4123 35.0173 18.4419 35.0009C18.4714 34.9845 18.504 34.9744 18.5376 34.9712C18.5712 34.968 18.6051 34.9717 18.6371 34.9822C18.6692 34.9927 18.6988 35.0097 18.7241 35.0322C22.0916 38.0251 25.7502 40.959 30.3892 41.375C31.3232 41.478 32.2658 41.4738 33.1989 41.3626C34.8505 41.1278 36.2259 40.2313 37.4851 39.1783C38.6697 38.1903 39.7233 37.0539 40.6201 35.7969C41.4788 34.5983 42.0571 33.2145 42.9923 32.0708C43.2369 31.7599 43.5451 31.5053 43.896 31.324C44.0778 31.2361 45.1087 31.2073 45.1552 31.081C45.229 30.8778 44.3349 29.9827 44.1858 29.7932C44.0655 29.6408 43.937 29.4582 43.9794 29.2674C43.9964 29.2054 44.0277 29.1483 44.0707 29.1006C44.1136 29.0529 44.1671 29.016 44.2269 28.9928C44.7341 28.7773 45.4847 29.2056 45.8812 29.4925C46.0179 29.5941 46.1615 29.7287 46.167 29.9044C46.1826 29.7096 46.2652 29.5264 46.4007 29.3861C46.5361 29.2458 46.716 29.1573 46.9094 29.1356C47.1057 29.1259 47.2992 29.1866 47.4552 29.3068C47.6111 29.427 47.7196 29.5989 47.7611 29.7918C48.2027 29.763 48.7182 29.7616 48.8809 30.3231C48.9185 30.4715 48.9213 30.6266 48.8891 30.7762C48.7701 31.405 48.6963 32.0297 48.6156 32.6639C49.0271 32.7189 49.4125 32.8973 49.7213 33.1759C50.0301 33.4544 50.2481 33.82 50.3465 34.2249C50.3526 34.2491 50.3528 34.2744 50.347 34.2986C50.3413 34.3229 50.3298 34.3454 50.3136 34.3642C50.2974 34.3831 50.2769 34.3977 50.2538 34.4069C50.2307 34.4161 50.2058 34.4196 50.1811 34.4171C49.0272 34.2908 47.8404 34.7192 47.4275 35.8957C47.3228 36.2403 47.2676 36.5981 47.2635 36.9584C47.2624 36.9769 47.256 36.9948 47.2451 37.0098C47.2342 37.0249 47.2192 37.0365 47.202 37.0433C47.1847 37.0501 47.1659 37.0517 47.1477 37.0481C47.1295 37.0445 47.1128 37.0358 47.0994 37.0229C46.9203 36.854 46.7699 36.7277 46.7015 36.6453C46.4707 36.3632 46.2882 36.0444 46.1615 35.7022C46.1008 35.5333 46.0501 35.3609 46.0097 35.1859C45.9646 35.0033 45.847 34.7068 45.873 34.5228C45.4466 37.3394 45.2481 40.186 45.2796 43.0348C45.2865 43.4219 45.3015 43.8105 45.3329 44.1963C45.6064 47.4912 46.9736 53.2574 46.9736 53.2574L45.9017 58.506C45.8975 58.5343 45.9028 58.5633 45.917 58.5882C45.9311 58.6131 45.9532 58.6325 45.9796 58.6433L46.8861 58.9837C46.9114 58.9932 46.9329 59.0106 46.9474 59.0334C46.962 59.0561 46.9688 59.083 46.9668 59.11L46.8465 60.9415C46.8447 60.9589 46.8467 60.9765 46.8522 60.9931C46.8576 61.0097 46.8665 61.025 46.8782 61.0379C46.89 61.0509 46.9043 61.0612 46.9202 61.0682C46.9362 61.0753 46.9535 61.0789 46.9709 61.0788H50.7813C50.8004 61.079 50.8194 61.0747 50.8366 61.0664C50.8538 61.0581 50.8689 61.0459 50.8807 61.0307C50.8925 61.0156 50.9006 60.9979 50.9045 60.9791C50.9083 60.9603 50.9078 60.9408 50.903 60.9223L49.8543 56.8434C49.8516 56.8293 49.8516 56.8149 49.8543 56.8008L50.4833 49.5368C50.5147 49.184 50.5393 48.8312 50.5762 48.4783C50.6296 47.9456 50.5612 47.2963 50.7622 46.7979C51.4239 45.1628 53.8166 46.894 54.6724 47.4445C55.8674 48.2147 57.2934 49.1359 58.0905 50.3482C58.1218 50.3966 58.1645 50.4364 58.2148 50.4642C58.2652 50.492 58.3215 50.5068 58.379 50.5075H62.6324C62.6956 50.5075 62.7576 50.4902 62.8118 50.4576C62.8659 50.4249 62.9103 50.3781 62.94 50.3221L63.934 48.4495C64.2074 47.9292 63.2996 47.6258 62.9879 47.6258C63.1502 47.3117 63.2445 46.9667 63.2645 46.6134C63.2845 46.2601 63.2299 45.9066 63.1041 45.576C62.9324 45.1494 62.6448 44.7798 62.2742 44.5093C62.1375 44.4091 61.8121 44.3102 61.7533 44.1619C61.6945 44.0137 61.838 43.5565 61.8626 43.3753C61.9994 42.277 62.0623 41.1361 61.473 40.1503C61.4323 40.0873 61.4078 40.0151 61.4019 39.9403C61.3704 39.2813 62.4506 40.6501 62.5476 40.764C62.8669 41.1337 63.2249 41.4679 63.6154 41.7607C64.2668 42.2549 65.0506 42.5418 65.8659 42.5845C66.7819 42.6161 67.78 42.3607 68.6222 42.0189C69.1951 41.7827 68.748 41.5589 68.3228 41.4052Z" fill="#A51819"/>
<path d="M59.4877 60.4404L54.2444 61.5634C54.2185 61.5696 54.1913 61.5681 54.1662 61.559C54.1411 61.5499 54.1192 61.5336 54.1032 61.5121C54.0872 61.4907 54.0778 61.465 54.0762 61.4382C54.0745 61.4115 54.0808 61.3848 54.094 61.3616L55.572 58.6419C55.5843 58.6182 55.59 58.5917 55.5884 58.565L55.3724 55.7451L55.2357 53.8972C55.1741 53.083 55.2603 52.2826 55.3218 51.4685C55.732 51.5577 57.9195 51.8927 57.9195 52.4295C57.9195 52.8181 57.7978 57.1125 57.7828 57.6012C57.782 57.6306 57.7906 57.6595 57.8074 57.6836L59.5766 60.2207C59.5912 60.2397 59.6005 60.2622 59.6037 60.286C59.607 60.3097 59.6039 60.3339 59.5949 60.3562C59.5859 60.3784 59.5713 60.3978 59.5525 60.4126C59.5337 60.4274 59.5113 60.437 59.4877 60.4404Z" fill="#A51819"/>
<path d="M14.643 61.4893L10.3718 61.363C10.3511 61.362 10.331 61.3563 10.3128 61.3463C10.2947 61.3363 10.2791 61.3223 10.2671 61.3054C10.2551 61.2885 10.2471 61.2691 10.2437 61.2486C10.2403 61.2282 10.2415 61.2072 10.2473 61.1873L11.1073 58.473C11.1125 58.4574 11.1139 58.4407 11.1114 58.4244C11.109 58.408 11.1027 58.3925 11.093 58.3791C11.0834 58.3657 11.0708 58.3548 11.0562 58.3473C11.0415 58.3397 11.0253 58.3358 11.0089 58.3358H9.89459C9.88035 58.3358 9.86625 58.3329 9.85318 58.3272C9.8401 58.3215 9.82833 58.3132 9.81859 58.3028C9.80884 58.2924 9.80134 58.2801 9.79654 58.2666C9.79174 58.2531 9.78975 58.2388 9.79068 58.2246L10.2008 51.7458L10.3376 50.5102L7.35976 44.5299C7.35006 44.5115 7.34499 44.491 7.34499 44.4702C7.34499 44.4494 7.35006 44.4289 7.35976 44.4105L8.45353 42.4719C8.46461 42.4522 8.4807 42.4358 8.50016 42.4244C8.51962 42.413 8.54174 42.407 8.56428 42.407C8.58681 42.407 8.60895 42.413 8.62841 42.4244C8.64787 42.4358 8.66395 42.4522 8.67502 42.4719L13.1185 50.4759C13.1483 50.5301 13.167 50.5897 13.1733 50.6513C13.1797 50.7129 13.1736 50.7751 13.1554 50.8342L12.1655 54.0674C12.1354 54.1644 12.1383 54.2688 12.1738 54.364L14.7797 61.3067C14.7871 61.328 14.7892 61.3509 14.7858 61.3732C14.7824 61.3955 14.7735 61.4167 14.76 61.4347C14.7464 61.4528 14.7287 61.4672 14.7083 61.4768C14.6879 61.4863 14.6654 61.4906 14.643 61.4893Z" fill="#A51819"/>
<path d="M2.54311 14.9542C3.34704 11.8885 5.27756 9.29371 7.81648 7.45128C9.16531 6.49385 10.6282 5.70978 12.1711 5.11736C14.2684 4.29362 16.5886 4.20575 18.8021 4.48445C20.0476 4.64233 21.274 4.91142 22.5059 5.14893C24.9341 5.61709 27.3841 6.00699 29.8219 6.42985C32.3157 6.86231 34.83 7.22887 37.3621 7.30575C41.3599 7.42794 45.292 6.71953 49.056 5.36997C52.8842 3.99707 56.551 1.96931 60.65 1.49428C64.2047 1.08241 70.7674 2.5926 70.7674 2.5926C75.0058 -2.62441 78.0137 1.63157 78.0137 1.63157C78.0137 1.63157 83.4826 9.1825 84.9865 10.9673C86.4904 12.752 89.635 15.6351 89.635 15.6351C90.4554 17.1453 89.635 17.969 89.635 17.969C89.635 17.969 86.9006 22.3623 84.1662 21.264C83.3089 20.9194 82.3286 20.7917 81.4714 21.1995C81.1987 21.3299 80.95 21.5059 80.7358 21.7198C80.5991 21.8571 80.4227 22.2031 80.2258 22.2291C78.4074 22.4639 76.5138 22.5339 75.0441 23.7695C74.1335 24.5329 73.5729 25.6065 73.2995 26.7528C73.0837 27.744 73.0105 28.7612 73.0821 29.7732C73.0821 29.8789 73.1177 30.9841 73.0917 31.0088C72.4081 31.558 68.5799 36.985 67.5681 38.5035C67.5441 38.5409 67.5125 38.5728 67.4755 38.5974C67.4385 38.6219 67.3968 38.6384 67.3531 38.6459C67.3094 38.6534 67.2646 38.6517 67.2216 38.6409C67.1786 38.63 67.1383 38.6104 67.1033 38.5831C66.4798 38.1067 64.9157 37.3969 64.1815 37.0729C63.6579 36.8436 63.3202 36.0597 62.9797 35.6176C62.5531 35.0685 62.1024 34.5344 61.6275 34.0155C60.8365 33.1652 59.9843 32.3746 59.0777 31.65C58.6456 31.3054 58.5062 31.2312 58.5882 30.7397L58.9984 28.3097L60.2494 20.8123L60.7648 17.7247C60.772 17.678 60.7942 17.6351 60.828 17.6023C60.8619 17.5696 60.9055 17.5489 60.9521 17.5434C61.7492 17.4487 65.2985 17.0616 67.3535 17.4254C69.6777 17.8372 68.0371 19.4847 67.4902 21.1322C67.132 22.2113 68.1164 22.0932 68.8396 21.809C69.2129 21.6635 69.2785 21.4603 69.5027 21.1446L70.1863 20.1588C70.8795 19.1182 71.7846 18.0899 72.3739 16.9764C72.5218 16.709 72.6188 16.4161 72.6596 16.1129C72.8059 14.9061 72.0047 13.5044 71.3991 12.4939C70.5859 11.1679 69.5919 9.96266 68.4459 8.91342C64.6176 5.34388 59.012 4.38286 57.6448 4.52015C57.1649 4.5682 56.4772 4.65744 56.1122 5.024C55.661 5.47568 56.3391 5.66652 56.737 5.76262C57.2269 5.86564 57.7065 6.01315 58.1698 6.20332C59.2335 6.67697 60.0525 7.55837 60.8414 8.41643C61.1148 8.71984 58.7755 11.2075 58.5417 11.478C57.195 13.039 55.944 14.6851 54.5905 16.2474C53.2793 17.7659 51.763 18.9589 50.0485 19.9899C48.5501 20.8892 47.1186 21.2558 45.4055 21.6127C42.9773 22.1179 40.3468 21.7733 38.0061 21.1638C34.0494 20.1438 29.93 19.9254 25.8884 20.5213C22.5633 21.0073 19.267 22.3321 16.3712 24.0153C13.984 25.4019 11.8142 27.2594 10.3308 29.6139C8.69971 32.1991 7.91219 35.2964 7.45964 38.2934C7.4405 38.4238 7.12194 37.9914 7.04948 37.8815C6.50259 37.0578 6.06508 36.4194 5.79984 35.6574C4.86329 32.9693 4.65411 29.9929 4.48183 27.1716C4.30273 24.2349 4.53652 21.1899 4.02245 18.2917C3.98964 18.1104 3.4906 16.0566 3.35799 16.1898C2.91637 16.6332 2.86578 17.376 2.76324 17.9581C2.63745 18.6816 2.54585 19.4106 2.47475 20.141C2.33804 21.6251 2.27651 23.116 2.20131 24.6056C2.11632 26.7424 2.23029 28.8824 2.54175 30.9978C2.98336 34.2406 3.87068 37.7099 3.05172 40.9596C3.00523 41.1408 1.97162 44.0376 1.57512 43.3731C1.16496 42.6867 0.89151 42.1375 0.207901 36.3713C-0.475708 30.6052 0.492287 22.7797 2.54311 14.9542ZM72.4764 10.4758C73.5237 12.5351 76.2609 13.7076 78.458 13.8352C79.2153 13.8745 79.9745 13.8345 80.7235 13.7158C80.7609 13.7105 80.7954 13.6926 80.8213 13.665C80.8473 13.6374 80.8631 13.6018 80.8663 13.5641C80.8695 13.5263 80.8598 13.4885 80.8388 13.457C80.8178 13.4254 80.7868 13.402 80.7508 13.3904C79.8405 13.085 78.9687 12.674 78.1531 12.1658C77.2713 11.6304 76.5043 11.1018 76.2048 10.0447C75.6388 8.05124 77.3082 6.65912 78.1518 5.06931C78.6768 4.07945 78.1326 3.14725 77.3615 2.49238C76.9951 2.18485 76.5863 1.90341 76.1187 1.80593C75.5951 1.71927 75.0578 1.82192 74.6025 2.09561C72.7403 3.14039 72.1811 5.40567 71.9924 7.37989C71.8899 8.4329 71.9979 9.53122 72.4764 10.4758Z" fill="#A51819"/>
</g>
<defs>
<clipPath id="clip0">
<rect width="90" height="62" transform="matrix(-1 0 0 1 90 0)" fill="white"/>
</clipPath>
</defs>
</svg>
