<svg width="31" height="31" viewBox="0 0 31 31" fill="none" xmlns="http://www.w3.org/2000/svg">
<g clip-path="url(#clip0)">
<path d="M19.1351 27.9042C15.8873 27.2851 12.0464 24.2116 9.06811 19.8757C5.10318 13.9981 4.00961 7.6435 6.5299 4.97762C6.63415 4.81457 6.76697 4.69355 6.92837 4.61456L9.07194 3.15733C9.52755 2.87833 10.0621 2.76072 10.627 2.86838C11.2624 2.9895 11.8087 3.38631 12.2155 3.93944L14.8156 7.76424C15.5585 8.85704 15.36 10.2826 14.358 10.933L11.9202 12.5903C12.5101 13.91 13.2479 15.2213 14.0698 16.4755C14.927 17.7365 15.8817 18.8696 16.8919 19.9036L19.3297 18.2464C19.792 17.9321 20.3199 17.8498 20.8847 17.9574C21.5201 18.0786 22.0664 18.4754 22.4732 19.0285L25.0733 22.8533C25.4162 23.3577 25.5557 23.9696 25.5186 24.5479C25.4395 25.1548 25.1133 25.7145 24.651 26.0288L22.5074 27.486C22.3813 27.5718 22.2199 27.6507 22.0232 27.723C21.1591 28.0339 20.1942 28.1061 19.1351 27.9042ZM10.3578 4.28046C10.2166 4.25354 10.0334 4.2552 9.90056 4.37622L7.72168 5.82672C7.72168 5.82672 7.67965 5.85529 7.67292 5.8906L7.62416 5.95447C5.53598 8.08078 6.70864 13.8286 10.287 19.0471C12.9661 23.0333 16.5448 25.9471 19.4043 26.4921C20.2162 26.6469 20.8853 26.5915 21.4754 26.3747L21.5527 26.3529C21.63 26.331 21.63 26.331 21.63 26.331L23.7736 24.8738C23.9838 24.7309 24.0241 24.5191 24.0443 24.4132C24.0914 24.1661 23.9906 23.9274 23.8544 23.6819L21.261 19.8218C21.0896 19.5696 20.8627 19.4166 20.6156 19.3695C20.4743 19.3426 20.2911 19.3443 20.1583 19.4653L17.6785 21.1511C17.1321 21.5225 16.384 21.4165 15.9285 20.9273C14.8544 19.8445 13.8493 18.592 12.9635 17.289C12.0492 15.944 11.2828 14.5907 10.671 13.1936C10.3904 12.5548 10.567 11.8202 11.1067 11.484L13.5865 9.7982C13.9227 9.56961 13.9531 9.02663 13.6673 8.60632L11.0672 4.78151C10.8319 4.48057 10.6049 4.32756 10.3578 4.28046Z" fill="white"/>
</g>
<defs>
<clipPath id="clip0">
<rect x="8.88318" y="0.643433" width="23" height="23" transform="rotate(20.9929 8.88318 0.643433)" fill="white"/>
</clipPath>
</defs>
</svg>
